<?xml version="1.0" standalone="no"?>
<svg viewBox="0 0 200 200" xmlns="http://www.w3.org/2000/svg">
  <path fill="#FF0066" d="M35.2,-62.9C44.5,-55.6,50,-43.8,57.7,-32.6C65.4,-21.4,75.3,-10.7,77.1,1C78.9,12.8,72.6,25.5,63.6,34.6C54.6,43.6,43,49,31.9,55.6C20.9,62.1,10.5,70,-0.2,70.3C-10.8,70.6,-21.6,63.3,-32.9,56.9C-44.2,50.4,-55.9,44.8,-63.3,35.4C-70.6,26.1,-73.4,13,-73.5,0C-73.5,-13.1,-70.8,-26.2,-65.9,-39.7C-60.9,-53.2,-53.8,-67,-42.5,-73.1C-31.1,-79.1,-15.6,-77.3,-1.3,-75.1C13,-72.8,26,-70.1,35.2,-62.9Z" transform="translate(100 100)" />
</svg>
